<svg width="1168" height="691" viewBox="0 0 1168 691" fill="none" xmlns="http://www.w3.org/2000/svg">
<mask id="path-1-inside-1_2152_2223" fill="white">
<path d="M1167.76 83.4135V0H299.208V71.1342C299.208 72.6685 298.599 74.1399 297.514 75.2248C296.429 76.3097 294.957 76.9192 293.423 76.9192C291.889 76.9192 290.417 76.3097 289.332 75.2248C288.247 74.1399 287.638 72.6685 287.638 71.1342V0H0.0497655V83.4135C7.86647 83.4135 15.363 86.5187 20.8903 92.0459C26.4175 97.5732 29.5227 105.07 29.5227 112.886C29.5227 120.703 26.4175 128.2 20.8903 133.727C15.363 139.254 7.86647 142.359 0.0497655 142.359V159.205C7.86647 159.205 15.363 162.31 20.8903 167.837C26.4175 173.364 29.5227 180.861 29.5227 188.678C29.5227 196.494 26.4175 203.991 20.8903 209.518C15.363 215.045 7.86647 218.15 0.0497655 218.15V234.996C3.92125 234.994 7.75513 235.755 11.3324 237.236C14.9096 238.716 18.1602 240.887 20.8983 243.624C23.6364 246.361 25.8085 249.61 27.2905 253.187C28.7724 256.764 29.5351 260.597 29.5351 264.469C29.5245 267.284 29.1055 270.084 28.291 272.779C26.4947 278.889 22.7671 284.251 17.6668 288.064C12.5665 291.877 6.368 293.935 0 293.929V310.774C7.81671 310.774 15.3133 313.879 20.8405 319.407C26.3678 324.934 29.4729 332.431 29.4729 340.247C29.4729 348.064 26.3678 355.56 20.8405 361.088C15.3133 366.615 7.81671 369.72 0 369.72V386.565C7.81671 386.565 15.3133 389.671 20.8405 395.198C26.3678 400.725 29.4729 408.222 29.4729 416.038C29.4729 423.855 26.3678 431.352 20.8405 436.879C15.3133 442.406 7.81671 445.511 0 445.511V462.357C7.81671 462.357 15.3133 465.462 20.8405 470.989C26.3678 476.516 29.4729 484.013 29.4729 491.829C29.4729 499.646 26.3678 507.143 20.8405 512.67C15.3133 518.197 7.81671 521.302 0 521.302V538.148C7.81341 538.148 15.3068 541.251 20.8317 546.776C26.3566 552.301 29.4605 559.795 29.4605 567.608C29.4605 575.422 26.3566 582.915 20.8317 588.44C15.3068 593.965 7.81341 597.069 0 597.069L0.000610352 690.5H287.701L287.7 614.262C287.7 612.728 288.31 611.256 289.395 610.171C290.479 609.086 291.951 608.477 293.485 608.477C295.02 608.477 296.491 609.086 297.576 610.171C298.661 611.256 299.27 612.728 299.27 614.262L299.271 690.5H1167.82V597.081C1160.01 597.081 1152.51 593.977 1146.99 588.452C1141.46 582.927 1138.36 575.434 1138.36 567.621C1138.36 559.807 1141.46 552.314 1146.99 546.789C1152.51 541.264 1160.01 538.16 1167.82 538.16V521.315C1160 521.315 1152.51 518.21 1146.98 512.682C1141.45 507.155 1138.35 499.659 1138.35 491.842C1138.35 484.025 1141.45 476.529 1146.98 471.001C1152.51 465.474 1160 462.369 1167.82 462.369V445.549C1160 445.549 1152.51 442.443 1146.98 436.916C1141.45 431.389 1138.35 423.892 1138.35 416.076C1138.35 408.259 1141.45 400.762 1146.98 395.235C1152.51 389.708 1160 386.603 1167.82 386.603V369.757C1160 369.757 1152.51 366.652 1146.98 361.125C1141.45 355.598 1138.35 348.101 1138.35 340.285C1138.35 332.468 1141.45 324.971 1146.98 319.444C1152.51 313.917 1160 310.812 1167.82 310.812V293.966C1160 293.966 1152.51 290.861 1146.98 285.334C1141.45 279.807 1138.35 272.31 1138.35 264.493C1138.35 256.677 1141.45 249.18 1146.98 243.653C1152.51 238.126 1160 235.021 1167.82 235.021V218.175C1160 218.175 1152.51 215.07 1146.98 209.543C1141.45 204.016 1138.35 196.519 1138.35 188.702C1138.35 180.886 1141.45 173.389 1146.98 167.862C1152.51 162.335 1160 159.229 1167.82 159.229V142.359C1160 142.359 1152.51 139.254 1146.98 133.727C1141.45 128.2 1138.35 120.703 1138.35 112.886C1138.35 105.07 1141.45 97.5732 1146.98 92.0459C1152.51 86.5187 1160 83.4135 1167.82 83.4135H1167.76ZM287.7 97.6212C287.7 96.0869 288.31 94.6155 289.395 93.5306C290.479 92.4457 291.951 91.836 293.485 91.836C295.02 91.836 296.491 92.4457 297.576 93.5306C298.661 94.6155 299.27 96.0869 299.27 97.6212V174.47C299.27 176.004 298.661 177.476 297.576 178.561C296.491 179.645 295.02 180.255 293.485 180.255C291.951 180.255 290.479 179.645 289.395 178.561C288.31 177.476 287.7 176.004 287.7 174.47V97.6212ZM287.7 200.957C287.7 199.423 288.31 197.951 289.395 196.866C290.479 195.781 291.951 195.172 293.485 195.172C295.02 195.172 296.491 195.781 297.576 196.866C298.661 197.951 299.27 199.423 299.27 200.957V277.805C299.27 279.34 298.661 280.811 297.576 281.896C296.491 282.981 295.02 283.59 293.485 283.59C291.951 283.59 290.479 282.981 289.395 281.896C288.31 280.811 287.7 279.34 287.7 277.805V200.957ZM287.7 304.218C287.7 302.684 288.31 301.212 289.395 300.127C290.479 299.042 291.951 298.433 293.485 298.433C295.02 298.433 296.491 299.042 297.576 300.127C298.661 301.212 299.27 302.684 299.27 304.218V381.066C299.27 382.601 298.661 384.072 297.576 385.157C296.491 386.242 295.02 386.852 293.485 386.852C291.951 386.852 290.479 386.242 289.395 385.157C288.31 384.072 287.7 382.601 287.7 381.066V304.218ZM299.27 587.738C299.27 589.272 298.661 590.744 297.576 591.828C296.491 592.913 295.02 593.523 293.485 593.523C291.951 593.523 290.479 592.913 289.395 591.828C288.31 590.744 287.7 589.272 287.7 587.738V510.889C287.7 509.355 288.31 507.883 289.395 506.798C290.479 505.714 291.951 505.104 293.485 505.104C295.02 505.104 296.491 505.714 297.576 506.798C298.661 507.883 299.27 509.355 299.27 510.889V587.738ZM299.27 484.402C299.27 485.936 298.661 487.408 297.576 488.493C296.491 489.578 295.02 490.187 293.485 490.187C291.951 490.187 290.479 489.578 289.395 488.493C288.31 487.408 287.7 485.936 287.7 484.402V407.553C287.7 406.019 288.31 404.548 289.395 403.463C290.479 402.378 291.951 401.768 293.485 401.768C295.02 401.768 296.491 402.378 297.576 403.463C298.661 404.548 299.27 406.019 299.27 407.553V484.402Z"/>
</mask>
<path d="M1167.76 83.4135V0H299.208V71.1342C299.208 72.6685 298.599 74.1399 297.514 75.2248C296.429 76.3097 294.957 76.9192 293.423 76.9192C291.889 76.9192 290.417 76.3097 289.332 75.2248C288.247 74.1399 287.638 72.6685 287.638 71.1342V0H0.0497655V83.4135C7.86647 83.4135 15.363 86.5187 20.8903 92.0459C26.4175 97.5732 29.5227 105.07 29.5227 112.886C29.5227 120.703 26.4175 128.2 20.8903 133.727C15.363 139.254 7.86647 142.359 0.0497655 142.359V159.205C7.86647 159.205 15.363 162.31 20.8903 167.837C26.4175 173.364 29.5227 180.861 29.5227 188.678C29.5227 196.494 26.4175 203.991 20.8903 209.518C15.363 215.045 7.86647 218.15 0.0497655 218.15V234.996C3.92125 234.994 7.75513 235.755 11.3324 237.236C14.9096 238.716 18.1602 240.887 20.8983 243.624C23.6364 246.361 25.8085 249.61 27.2905 253.187C28.7724 256.764 29.5351 260.597 29.5351 264.469C29.5245 267.284 29.1055 270.084 28.291 272.779C26.4947 278.889 22.7671 284.251 17.6668 288.064C12.5665 291.877 6.368 293.935 0 293.929V310.774C7.81671 310.774 15.3133 313.879 20.8405 319.407C26.3678 324.934 29.4729 332.431 29.4729 340.247C29.4729 348.064 26.3678 355.56 20.8405 361.088C15.3133 366.615 7.81671 369.72 0 369.72V386.565C7.81671 386.565 15.3133 389.671 20.8405 395.198C26.3678 400.725 29.4729 408.222 29.4729 416.038C29.4729 423.855 26.3678 431.352 20.8405 436.879C15.3133 442.406 7.81671 445.511 0 445.511V462.357C7.81671 462.357 15.3133 465.462 20.8405 470.989C26.3678 476.516 29.4729 484.013 29.4729 491.829C29.4729 499.646 26.3678 507.143 20.8405 512.67C15.3133 518.197 7.81671 521.302 0 521.302V538.148C7.81341 538.148 15.3068 541.251 20.8317 546.776C26.3566 552.301 29.4605 559.795 29.4605 567.608C29.4605 575.422 26.3566 582.915 20.8317 588.44C15.3068 593.965 7.81341 597.069 0 597.069L0.000610352 690.5H287.701L287.7 614.262C287.7 612.728 288.31 611.256 289.395 610.171C290.479 609.086 291.951 608.477 293.485 608.477C295.02 608.477 296.491 609.086 297.576 610.171C298.661 611.256 299.27 612.728 299.27 614.262L299.271 690.5H1167.82V597.081C1160.01 597.081 1152.51 593.977 1146.99 588.452C1141.46 582.927 1138.36 575.434 1138.36 567.621C1138.36 559.807 1141.46 552.314 1146.99 546.789C1152.51 541.264 1160.01 538.16 1167.82 538.16V521.315C1160 521.315 1152.51 518.21 1146.98 512.682C1141.45 507.155 1138.35 499.659 1138.35 491.842C1138.35 484.025 1141.45 476.529 1146.98 471.001C1152.51 465.474 1160 462.369 1167.82 462.369V445.549C1160 445.549 1152.51 442.443 1146.98 436.916C1141.45 431.389 1138.35 423.892 1138.35 416.076C1138.35 408.259 1141.45 400.762 1146.98 395.235C1152.51 389.708 1160 386.603 1167.82 386.603V369.757C1160 369.757 1152.51 366.652 1146.98 361.125C1141.45 355.598 1138.35 348.101 1138.35 340.285C1138.35 332.468 1141.45 324.971 1146.98 319.444C1152.51 313.917 1160 310.812 1167.82 310.812V293.966C1160 293.966 1152.51 290.861 1146.98 285.334C1141.45 279.807 1138.35 272.31 1138.35 264.493C1138.35 256.677 1141.45 249.18 1146.98 243.653C1152.51 238.126 1160 235.021 1167.82 235.021V218.175C1160 218.175 1152.51 215.07 1146.98 209.543C1141.45 204.016 1138.35 196.519 1138.35 188.702C1138.35 180.886 1141.45 173.389 1146.98 167.862C1152.51 162.335 1160 159.229 1167.82 159.229V142.359C1160 142.359 1152.51 139.254 1146.98 133.727C1141.45 128.2 1138.35 120.703 1138.35 112.886C1138.35 105.07 1141.45 97.5732 1146.98 92.0459C1152.51 86.5187 1160 83.4135 1167.82 83.4135H1167.76ZM287.7 97.6212C287.7 96.0869 288.31 94.6155 289.395 93.5306C290.479 92.4457 291.951 91.836 293.485 91.836C295.02 91.836 296.491 92.4457 297.576 93.5306C298.661 94.6155 299.27 96.0869 299.27 97.6212V174.47C299.27 176.004 298.661 177.476 297.576 178.561C296.491 179.645 295.02 180.255 293.485 180.255C291.951 180.255 290.479 179.645 289.395 178.561C288.31 177.476 287.7 176.004 287.7 174.47V97.6212ZM287.7 200.957C287.7 199.423 288.31 197.951 289.395 196.866C290.479 195.781 291.951 195.172 293.485 195.172C295.02 195.172 296.491 195.781 297.576 196.866C298.661 197.951 299.27 199.423 299.27 200.957V277.805C299.27 279.34 298.661 280.811 297.576 281.896C296.491 282.981 295.02 283.59 293.485 283.59C291.951 283.59 290.479 282.981 289.395 281.896C288.31 280.811 287.7 279.34 287.7 277.805V200.957ZM287.7 304.218C287.7 302.684 288.31 301.212 289.395 300.127C290.479 299.042 291.951 298.433 293.485 298.433C295.02 298.433 296.491 299.042 297.576 300.127C298.661 301.212 299.27 302.684 299.27 304.218V381.066C299.27 382.601 298.661 384.072 297.576 385.157C296.491 386.242 295.02 386.852 293.485 386.852C291.951 386.852 290.479 386.242 289.395 385.157C288.31 384.072 287.7 382.601 287.7 381.066V304.218ZM299.27 587.738C299.27 589.272 298.661 590.744 297.576 591.828C296.491 592.913 295.02 593.523 293.485 593.523C291.951 593.523 290.479 592.913 289.395 591.828C288.31 590.744 287.7 589.272 287.7 587.738V510.889C287.7 509.355 288.31 507.883 289.395 506.798C290.479 505.714 291.951 505.104 293.485 505.104C295.02 505.104 296.491 505.714 297.576 506.798C298.661 507.883 299.27 509.355 299.27 510.889V587.738ZM299.27 484.402C299.27 485.936 298.661 487.408 297.576 488.493C296.491 489.578 295.02 490.187 293.485 490.187C291.951 490.187 290.479 489.578 289.395 488.493C288.31 487.408 287.7 485.936 287.7 484.402V407.553C287.7 406.019 288.31 404.548 289.395 403.463C290.479 402.378 291.951 401.768 293.485 401.768C295.02 401.768 296.491 402.378 297.576 403.463C298.661 404.548 299.27 406.019 299.27 407.553V484.402Z" fill="#FDFDFD" stroke="#C4C4C4" stroke-width="2" mask="url(#path-1-inside-1_2152_2223)"/>
</svg>
